<?xml version="1.0" encoding="utf-8"?>
<!-- Generator: Adobe Illustrator 16.0.0, SVG Export Plug-In . SVG Version: 6.00 Build 0)  -->
<!DOCTYPE svg PUBLIC "-//W3C//DTD SVG 1.0//EN" "http://www.w3.org/TR/2001/REC-SVG-20010904/DTD/svg10.dtd">
<svg version="1.0" id="Layer_1" xmlns="http://www.w3.org/2000/svg" xmlns:xlink="http://www.w3.org/1999/xlink" x="0px" y="0px"
	 width="2908.686px" height="1939.123px" viewBox="0 0 2908.686 1939.123" enable-background="new 0 0 2908.686 1939.123"
	 xml:space="preserve">
<circle fill="none" stroke="#ED1F24" stroke-width="0.072" stroke-linecap="round" stroke-linejoin="round" stroke-miterlimit="10" cx="301.604" cy="1029.406" r="184.334"/>
<g>
	<g>
		
			<path fill="none" stroke="#ED1F24" stroke-width="0.072" stroke-linecap="round" stroke-linejoin="round" stroke-miterlimit="10" d="
			M671.551,1086.55c-24.629,0-44.574,19.971-44.574,44.6c0,23.25,18.523,42.33,40.523,44.4v-12.715h-4v-7h4v-8.486
			c-7-1.809-13.023-8.529-13.023-16.539c0-9.4,7.596-17.01,16.996-17.01c9.391,0,17.027,7.609,17.027,17.01
			c0,8.02-5,14.74-13,16.539v8.486h4v7h-4v12.734c23-1.971,40.668-21.1,40.668-44.42
			C716.168,1106.521,696.182,1086.55,671.551,1086.55z"/>
		<g>
			
				<ellipse fill="none" stroke="#ED1F24" stroke-width="0.072" stroke-linecap="round" stroke-linejoin="round" stroke-miterlimit="10" cx="641.697" cy="1131.06" rx="5.633" ry="5.67"/>
			
				<ellipse fill="none" stroke="#ED1F24" stroke-width="0.072" stroke-linecap="round" stroke-linejoin="round" stroke-miterlimit="10" cx="701.299" cy="1131.06" rx="5.633" ry="5.67"/>
		</g>
	</g>
</g>
<g>
	<g>
		
			<path fill="none" stroke="#ED1F24" stroke-width="0.072" stroke-linecap="round" stroke-linejoin="round" stroke-miterlimit="10" d="
			M271.801,1037.201c-4.305,0-7.795-3.493-7.795-7.795c0-4.305,3.49-7.795,7.795-7.795c4.303,0,7.795,3.49,7.795,7.795
			C279.596,1033.708,276.104,1037.201,271.801,1037.201z"/>
		
			<path fill="none" stroke="#ED1F24" stroke-width="0.072" stroke-linecap="round" stroke-linejoin="round" stroke-miterlimit="10" d="
			M331.404,1037.201c-4.303,0-7.795-3.493-7.795-7.795c0-4.305,3.492-7.795,7.795-7.795s7.795,3.49,7.795,7.795
			C339.199,1033.708,335.707,1037.201,331.404,1037.201z"/>
	</g>
	
		<circle fill="none" stroke="#ED1F24" stroke-width="0.072" stroke-linecap="round" stroke-linejoin="round" stroke-miterlimit="10" cx="301.781" cy="1029.406" r="17.008"/>
</g>
<g>
	<g>
		<g>
			
				<ellipse fill="none" stroke="#ED1F24" stroke-width="0.072" stroke-linecap="round" stroke-linejoin="round" stroke-miterlimit="10" cx="641.697" cy="834.56" rx="5.633" ry="5.67"/>
			
				<ellipse fill="none" stroke="#ED1F24" stroke-width="0.072" stroke-linecap="round" stroke-linejoin="round" stroke-miterlimit="10" cx="701.299" cy="834.56" rx="5.633" ry="5.67"/>
		</g>
		
			<circle fill="none" stroke="#ED1F24" stroke-width="0.072" stroke-linecap="round" stroke-linejoin="round" stroke-miterlimit="10" cx="671.675" cy="834.56" r="17.008"/>
	</g>
	
		<circle fill="none" stroke="#ED1F24" stroke-width="0.072" stroke-linecap="round" stroke-linejoin="round" stroke-miterlimit="10" cx="671.675" cy="834.56" r="44.596"/>
</g>
<g>
	<g>
		<g>
			
				<ellipse fill="none" stroke="#ED1F24" stroke-width="0.072" stroke-linecap="round" stroke-linejoin="round" stroke-miterlimit="10" cx="641.697" cy="935.56" rx="5.633" ry="5.67"/>
			
				<ellipse fill="none" stroke="#ED1F24" stroke-width="0.072" stroke-linecap="round" stroke-linejoin="round" stroke-miterlimit="10" cx="701.299" cy="935.56" rx="5.633" ry="5.67"/>
		</g>
		
			<circle fill="none" stroke="#ED1F24" stroke-width="0.072" stroke-linecap="round" stroke-linejoin="round" stroke-miterlimit="10" cx="671.675" cy="935.56" r="17.008"/>
	</g>
	
		<circle fill="none" stroke="#ED1F24" stroke-width="0.072" stroke-linecap="round" stroke-linejoin="round" stroke-miterlimit="10" cx="671.675" cy="935.56" r="44.596"/>
</g>
<g>
	<g>
		<g>
			
				<ellipse fill="none" stroke="#ED1F24" stroke-width="0.072" stroke-linecap="round" stroke-linejoin="round" stroke-miterlimit="10" cx="742.697" cy="935.56" rx="5.633" ry="5.67"/>
			
				<ellipse fill="none" stroke="#ED1F24" stroke-width="0.072" stroke-linecap="round" stroke-linejoin="round" stroke-miterlimit="10" cx="802.299" cy="935.56" rx="5.633" ry="5.67"/>
		</g>
		
			<circle fill="none" stroke="#ED1F24" stroke-width="0.072" stroke-linecap="round" stroke-linejoin="round" stroke-miterlimit="10" cx="772.675" cy="935.56" r="17.008"/>
	</g>
	
		<circle fill="none" stroke="#ED1F24" stroke-width="0.072" stroke-linecap="round" stroke-linejoin="round" stroke-miterlimit="10" cx="772.675" cy="935.56" r="44.596"/>
</g>
<g>
	<g>
		<g>
			
				<ellipse fill="none" stroke="#ED1F24" stroke-width="0.072" stroke-linecap="round" stroke-linejoin="round" stroke-miterlimit="10" cx="742.697" cy="834.56" rx="5.633" ry="5.67"/>
			
				<ellipse fill="none" stroke="#ED1F24" stroke-width="0.072" stroke-linecap="round" stroke-linejoin="round" stroke-miterlimit="10" cx="802.299" cy="834.56" rx="5.633" ry="5.67"/>
		</g>
		
			<circle fill="none" stroke="#ED1F24" stroke-width="0.072" stroke-linecap="round" stroke-linejoin="round" stroke-miterlimit="10" cx="772.675" cy="834.56" r="17.008"/>
	</g>
	
		<circle fill="none" stroke="#ED1F24" stroke-width="0.072" stroke-linecap="round" stroke-linejoin="round" stroke-miterlimit="10" cx="772.675" cy="834.56" r="44.596"/>
</g>
<g>
	<g>
		<g>
			
				<ellipse fill="none" stroke="#ED1F24" stroke-width="0.072" stroke-linecap="round" stroke-linejoin="round" stroke-miterlimit="10" cx="742.697" cy="1033.56" rx="5.633" ry="5.67"/>
			
				<ellipse fill="none" stroke="#ED1F24" stroke-width="0.072" stroke-linecap="round" stroke-linejoin="round" stroke-miterlimit="10" cx="802.299" cy="1033.56" rx="5.633" ry="5.67"/>
		</g>
		
			<circle fill="none" stroke="#ED1F24" stroke-width="0.072" stroke-linecap="round" stroke-linejoin="round" stroke-miterlimit="10" cx="772.675" cy="1033.56" r="17.008"/>
	</g>
	
		<circle fill="none" stroke="#ED1F24" stroke-width="0.072" stroke-linecap="round" stroke-linejoin="round" stroke-miterlimit="10" cx="772.675" cy="1033.56" r="44.596"/>
</g>
<g>
	<g>
		<g>
			<g>
				
					<ellipse fill="none" stroke="#ED1F24" stroke-width="0.072" stroke-linecap="round" stroke-linejoin="round" stroke-miterlimit="10" cx="759.697" cy="1249.56" rx="5.633" ry="5.67"/>
				
					<ellipse fill="none" stroke="#ED1F24" stroke-width="0.072" stroke-linecap="round" stroke-linejoin="round" stroke-miterlimit="10" cx="819.299" cy="1249.56" rx="5.633" ry="5.67"/>
			</g>
			
				<circle fill="none" stroke="#ED1F24" stroke-width="0.072" stroke-linecap="round" stroke-linejoin="round" stroke-miterlimit="10" cx="789.675" cy="1249.56" r="17.008"/>
		</g>
		
			<circle fill="none" stroke="#ED1F24" stroke-width="0.072" stroke-linecap="round" stroke-linejoin="round" stroke-miterlimit="10" cx="789.675" cy="1249.56" r="55.596"/>
	</g>
	<g>
		<g>
			<g>
				
					<ellipse fill="none" stroke="#ED1F24" stroke-width="0.072" stroke-linecap="round" stroke-linejoin="round" stroke-miterlimit="10" cx="627.697" cy="1249.56" rx="5.633" ry="5.67"/>
				
					<ellipse fill="none" stroke="#ED1F24" stroke-width="0.072" stroke-linecap="round" stroke-linejoin="round" stroke-miterlimit="10" cx="687.299" cy="1249.56" rx="5.633" ry="5.67"/>
			</g>
			
				<circle fill="none" stroke="#ED1F24" stroke-width="0.072" stroke-linecap="round" stroke-linejoin="round" stroke-miterlimit="10" cx="657.675" cy="1249.56" r="17.008"/>
		</g>
		
			<circle fill="none" stroke="#ED1F24" stroke-width="0.072" stroke-linecap="round" stroke-linejoin="round" stroke-miterlimit="10" cx="657.675" cy="1249.56" r="55.596"/>
	</g>
</g>
<g>
	<g>
		<g>
			
				<ellipse fill="none" stroke="#ED1F24" stroke-width="0.072" stroke-linecap="round" stroke-linejoin="round" stroke-miterlimit="10" cx="641.697" cy="1033.56" rx="5.633" ry="5.67"/>
			
				<ellipse fill="none" stroke="#ED1F24" stroke-width="0.072" stroke-linecap="round" stroke-linejoin="round" stroke-miterlimit="10" cx="701.299" cy="1033.56" rx="5.633" ry="5.67"/>
		</g>
		
			<circle fill="none" stroke="#ED1F24" stroke-width="0.072" stroke-linecap="round" stroke-linejoin="round" stroke-miterlimit="10" cx="671.675" cy="1033.56" r="17.008"/>
	</g>
	
		<circle fill="none" stroke="#ED1F24" stroke-width="0.072" stroke-linecap="round" stroke-linejoin="round" stroke-miterlimit="10" cx="671.675" cy="1033.56" r="44.596"/>
</g>
<rect x="219.5" y="1109.835" fill="none" stroke="#ED1F24" stroke-width="0.072" stroke-linecap="round" stroke-linejoin="round" stroke-miterlimit="10" width="164" height="16"/>
<g>
	
		<polyline fill="none" stroke="#3953A4" stroke-width="0.072" stroke-linecap="round" stroke-linejoin="round" stroke-miterlimit="10" points="
		331.716,896.809 302.408,930.727 272.274,896.809 	"/>
	
		<line fill="none" stroke="#3953A4" stroke-width="0.072" stroke-linecap="round" stroke-linejoin="round" stroke-miterlimit="10" x1="271.5" y1="959.335" x2="271.5" y2="896.335"/>
	
		<line fill="none" stroke="#3953A4" stroke-width="0.072" stroke-linecap="round" stroke-linejoin="round" stroke-miterlimit="10" x1="272.274" y1="896.809" x2="331.716" y2="922.415"/>
	
		<line fill="none" stroke="#3953A4" stroke-width="0.072" stroke-linecap="round" stroke-linejoin="round" stroke-miterlimit="10" x1="331.5" y1="959.335" x2="331.5" y2="896.335"/>
	
		<line fill="none" stroke="#3953A4" stroke-width="0.072" stroke-linecap="round" stroke-linejoin="round" stroke-miterlimit="10" x1="331.716" y1="896.809" x2="302.572" y2="909.612"/>
	
		<line fill="none" stroke="#3953A4" stroke-width="0.072" stroke-linecap="round" stroke-linejoin="round" stroke-miterlimit="10" x1="301.5" y1="930.335" x2="301.5" y2="959.335"/>
	
		<circle fill="none" stroke="#3953A4" stroke-width="0.072" stroke-linecap="round" stroke-linejoin="round" stroke-miterlimit="10" cx="301.995" cy="930.475" r="60.604"/>
</g>
<line fill="none" stroke="#3953A4" stroke-width="0.072" stroke-miterlimit="10" x1="2855.375" y1="1799.318" x2="2858.385" y2="1809.609"/>
<line fill="none" stroke="#3953A4" stroke-width="0.072" stroke-miterlimit="10" x1="2855.375" y1="1799.318" x2="2849.064" y2="1809.609"/>
<line fill="none" stroke="#3953A4" stroke-width="0.072" stroke-miterlimit="10" x1="2849.064" y1="1809.609" x2="2841.589" y2="1799.318"/>
<line fill="none" stroke="#3953A4" stroke-width="0.072" stroke-miterlimit="10" x1="2841.589" y1="1835.386" x2="2858.385" y2="1809.609"/>
<line fill="none" stroke="#3953A4" stroke-width="0.072" stroke-miterlimit="10" x1="2841.589" y1="1835.386" x2="2849.064" y2="1809.609"/>
<line fill="none" stroke="#3953A4" stroke-width="0.072" stroke-miterlimit="10" x1="2841.589" y1="1835.386" x2="2841.589" y2="1799.318"/>
<line fill="none" stroke="#3953A4" stroke-width="0.072" stroke-miterlimit="10" x1="2827.803" y1="1799.318" x2="2824.794" y2="1809.609"/>
<line fill="none" stroke="#3953A4" stroke-width="0.072" stroke-miterlimit="10" x1="2827.803" y1="1799.318" x2="2834.113" y2="1809.609"/>
<line fill="none" stroke="#3953A4" stroke-width="0.072" stroke-miterlimit="10" x1="2834.113" y1="1809.609" x2="2841.589" y2="1799.318"/>
<line fill="none" stroke="#3953A4" stroke-width="0.072" stroke-miterlimit="10" x1="2841.589" y1="1835.386" x2="2824.794" y2="1809.609"/>
<line fill="none" stroke="#3953A4" stroke-width="0.072" stroke-miterlimit="10" x1="2841.589" y1="1835.386" x2="2834.113" y2="1809.609"/>
<line fill="none" stroke="#3953A4" stroke-width="0.072" stroke-miterlimit="10" x1="2816.717" y1="1809.609" x2="2866.461" y2="1809.609"/>
<circle fill="none" stroke="#ED2024" stroke-width="0.072" stroke-miterlimit="10" cx="2841.592" cy="1860.955" r="22.677"/>
<line fill="none" stroke="#3953A4" stroke-width="0.072" stroke-miterlimit="10" x1="2836.18" y1="1829.782" x2="2841.589" y2="1835.386"/>
<line fill="none" stroke="#3953A4" stroke-width="0.072" stroke-miterlimit="10" x1="2841.589" y1="1835.386" x2="2847" y2="1829.782"/>
<g>
	<path fill="none" stroke="#3953A4" stroke-width="0.072" stroke-miterlimit="10" d="M2857.987,1879.986l1.097,1.335l2.48,0.994
		l-0.461,0.38l-1.156-0.504c-0.318-0.138-0.568-0.254-0.846-0.393l-0.01,0.008c0.08,0.278,0.141,0.571,0.215,0.91l0.262,1.239
		l-0.463,0.38l-0.429-2.672l-1.101-1.34L2857.987,1879.986z"/>
	<path fill="none" stroke="#3953A4" stroke-width="0.072" stroke-miterlimit="10" d="M2858.375,1884.789
		c-0.247,0.209-0.553,0.438-0.906,0.656c-0.645,0.395-1.193,0.527-1.67,0.432c-0.482-0.093-0.91-0.385-1.254-0.943
		c-0.348-0.566-0.459-1.137-0.33-1.654c0.125-0.523,0.552-1.027,1.225-1.441c0.319-0.197,0.596-0.345,0.838-0.459L2858.375,1884.789
		z M2856.043,1882c-0.127,0.047-0.293,0.145-0.469,0.251c-0.957,0.589-1.146,1.443-0.57,2.378c0.496,0.822,1.279,1.057,2.225,0.475
		c0.232-0.143,0.395-0.27,0.496-0.369L2856.043,1882z"/>
	<path fill="none" stroke="#3953A4" stroke-width="0.072" stroke-miterlimit="10" d="M2851.779,1885.933l1.444-0.646l-0.599-1.339
		l-1.609,0.72l-0.182-0.403l2.09-0.934l1.663,3.714l-2.007,0.898l-0.18-0.401l1.527-0.685l-0.525-1.175l-1.445,0.647
		L2851.779,1885.933z"/>
	<path fill="none" stroke="#3953A4" stroke-width="0.072" stroke-miterlimit="10" d="M2851.525,1888.338l-2.092,0.667l-0.133-0.421
		l1.589-0.506l-0.411-1.29l-1.469,0.469l-0.132-0.415l1.468-0.469l-0.559-1.755l0.5-0.161L2851.525,1888.338z"/>
	<path fill="none" stroke="#3953A4" stroke-width="0.072" stroke-miterlimit="10" d="M2845.895,1887.565l1.549-0.313l-0.291-1.437
		l-1.727,0.35l-0.088-0.432l2.24-0.454l0.807,3.984l-2.15,0.437l-0.088-0.433l1.637-0.33l-0.254-1.26l-1.549,0.313
		L2845.895,1887.565z"/>
	<path fill="none" stroke="#3953A4" stroke-width="0.072" stroke-miterlimit="10" d="M2845.123,1889.862l-0.523,0.047l-0.33-3.618
		l-1.734,0.158l-0.039-0.439l2.258-0.205L2845.123,1889.862z"/>
	<path fill="none" stroke="#3953A4" stroke-width="0.072" stroke-miterlimit="10" d="M2841.925,1890.051
		c-0.321,0.036-0.702,0.059-1.118,0.044c-0.754-0.028-1.285-0.223-1.629-0.566c-0.35-0.345-0.543-0.822-0.52-1.48
		c0.023-0.663,0.248-1.199,0.642-1.558c0.394-0.367,1.028-0.55,1.819-0.521c0.373,0.013,0.686,0.042,0.951,0.082L2841.925,1890.051z
		 M2841.529,1886.437c-0.131-0.028-0.324-0.041-0.529-0.049c-1.121-0.041-1.754,0.564-1.793,1.662
		c-0.041,0.958,0.48,1.588,1.59,1.627c0.271,0.01,0.479-0.006,0.617-0.031L2841.529,1886.437z"/>
	<path fill="none" stroke="#3953A4" stroke-width="0.072" stroke-miterlimit="10" d="M2836.947,1889.269l1.22,0.203l-0.073,0.441
		l-2.969-0.495l0.073-0.44l1.226,0.205l0.594-3.57l0.523,0.087L2836.947,1889.269z"/>
	<path fill="none" stroke="#3953A4" stroke-width="0.072" stroke-miterlimit="10" d="M2835.863,1885.701
		c-0.051,0.217-0.232,0.336-0.439,0.287c-0.205-0.049-0.31-0.234-0.258-0.451c0.049-0.212,0.223-0.338,0.439-0.287
		C2835.811,1885.298,2835.914,1885.49,2835.863,1885.701z"/>
	<path fill="none" stroke="#3953A4" stroke-width="0.072" stroke-miterlimit="10" d="M2831.92,1884.345
		c0.215-0.031,0.61-0.001,1.08,0.154c1.088,0.359,1.68,1.315,1.262,2.582c-0.4,1.207-1.488,1.756-2.686,1.36
		c-0.48-0.159-0.75-0.36-0.859-0.474l0.254-0.367c0.16,0.154,0.406,0.312,0.727,0.418c0.905,0.298,1.697-0.08,2.031-1.095
		c0.312-0.945-0.031-1.731-0.971-2.041c-0.303-0.101-0.633-0.14-0.865-0.109L2831.92,1884.345z"/>
	<path fill="none" stroke="#3953A4" stroke-width="0.072" stroke-miterlimit="10" d="M2827.549,1884.39
		c0.621-1.255,1.712-1.543,2.643-1.084c0.963,0.475,1.271,1.557,0.725,2.66c-0.571,1.157-1.664,1.56-2.639,1.078
		C2827.281,1886.553,2827.015,1885.472,2827.549,1884.39z M2830.408,1885.728c0.385-0.778,0.309-1.686-0.434-2.052
		c-0.746-0.368-1.508,0.109-1.918,0.938c-0.357,0.726-0.352,1.67,0.432,2.058C2829.268,1887.056,2830.014,1886.53,2830.408,1885.728
		z"/>
	<path fill="none" stroke="#3953A4" stroke-width="0.072" stroke-miterlimit="10" d="M2824.194,1881.712
		c-0.308,0.479-0.677,1.055-0.979,1.46l0.016,0.013c0.391-0.307,0.824-0.619,1.32-0.955l1.738-1.18l0.322,0.234l-0.6,1.956
		c-0.18,0.577-0.355,1.099-0.545,1.559l0.01,0.007c0.307-0.404,0.73-0.939,1.117-1.413l1.109-1.351l0.406,0.293l-2.611,3.133
		l-0.544-0.391l0.589-2.004c0.156-0.505,0.305-0.949,0.469-1.352l-0.014-0.011c-0.324,0.273-0.703,0.552-1.15,0.86l-1.739,1.172
		l-0.544-0.392l2.176-3.448l0.418,0.301L2824.194,1881.712z"/>
</g>
<path fill="none" stroke="#ED2024" stroke-width="0.072" stroke-miterlimit="10" d="M2873.22,1860.952
	c0,17.47-14.16,31.64-31.63,31.64c-17.471,0-31.631-14.17-31.631-31.64c0-15.63,11.33-28.601,26.221-31.17l-19.46-20.413
	l11.09-10.533h27.569l11.08,10.533L2847,1829.66C2861.89,1832.23,2873.22,1845.322,2873.22,1860.952z"/>
<g>
	
		<path fill="none" stroke="#ED1F24" stroke-width="0.072" stroke-linecap="round" stroke-linejoin="round" stroke-miterlimit="10" d="
		M772.551,1087.05c-24.629,0-44.574,19.971-44.574,44.6c0,23.25,18.523,42.33,40.523,44.4v-12.215h-4v-7h4v-8.986
		c-7-1.809-13.023-8.529-13.023-16.539c0-9.4,7.596-17.01,16.996-17.01c9.391,0,17.027,7.609,17.027,17.01c0,8.02-5,14.74-13,16.539
		v8.986h4v7h-4v12.234c23-1.971,40.668-21.1,40.668-44.42C817.168,1107.021,797.182,1087.05,772.551,1087.05z"/>
	<g>
		
			<ellipse fill="none" stroke="#ED1F24" stroke-width="0.072" stroke-linecap="round" stroke-linejoin="round" stroke-miterlimit="10" cx="742.697" cy="1131.56" rx="5.633" ry="5.67"/>
		
			<ellipse fill="none" stroke="#ED1F24" stroke-width="0.072" stroke-linecap="round" stroke-linejoin="round" stroke-miterlimit="10" cx="802.299" cy="1131.56" rx="5.633" ry="5.67"/>
	</g>
</g>
<path fill="none" stroke="#ED1F24" stroke-width="0.072" stroke-linecap="round" stroke-linejoin="round" stroke-miterlimit="10" d="
	M569.5,1117.835h-22c-5.523,0-10-4.478-10-10v-121c0-5.522,4.477-10,10-10h22c5.523,0,10,4.478,10,10v121
	C579.5,1113.358,575.023,1117.835,569.5,1117.835z"/>
<circle fill="none" stroke="#ED1F24" stroke-width="0.072" stroke-linecap="round" stroke-linejoin="round" stroke-miterlimit="10" cx="558.5" cy="1097.23" r="11.338"/>
<g id="INSERT">
	<g id="SPLINE">
		
			<circle fill="none" stroke="#ED1F24" stroke-width="0.072" stroke-linecap="round" stroke-linejoin="round" stroke-miterlimit="10" cx="1472.893" cy="165.888" r="4.252"/>
	</g>
	<g id="SPLINE_1_">
		
			<circle fill="none" stroke="#ED1F24" stroke-width="0.072" stroke-linecap="round" stroke-linejoin="round" stroke-miterlimit="10" cx="1560.893" cy="165.888" r="4.252"/>
	</g>
	<g id="SPLINE_2_">
		
			<circle fill="none" stroke="#ED1F24" stroke-width="0.072" stroke-linecap="round" stroke-linejoin="round" stroke-miterlimit="10" cx="1560.893" cy="253.888" r="4.252"/>
	</g>
	<g id="SPLINE_3_">
		
			<circle fill="none" stroke="#ED1F24" stroke-width="0.072" stroke-linecap="round" stroke-linejoin="round" stroke-miterlimit="10" cx="1472.893" cy="253.888" r="4.252"/>
	</g>
	<g id="SPLINE_4_">
		
			<circle fill="none" stroke="#ED1F24" stroke-width="0.072" stroke-linecap="round" stroke-linejoin="round" stroke-miterlimit="10" cx="1516.418" cy="210.271" r="32.4"/>
	</g>
</g>
<g id="INSERT_1_">
	<g id="SPLINE_9_">
		
			<circle fill="none" stroke="#ED1F24" stroke-width="0.072" stroke-linecap="round" stroke-linejoin="round" stroke-miterlimit="10" cx="2521.712" cy="165.888" r="4.252"/>
	</g>
	<g id="SPLINE_8_">
		
			<circle fill="none" stroke="#ED1F24" stroke-width="0.072" stroke-linecap="round" stroke-linejoin="round" stroke-miterlimit="10" cx="2609.712" cy="165.888" r="4.252"/>
	</g>
	<g id="SPLINE_7_">
		
			<circle fill="none" stroke="#ED1F24" stroke-width="0.072" stroke-linecap="round" stroke-linejoin="round" stroke-miterlimit="10" cx="2609.712" cy="253.888" r="4.252"/>
	</g>
	<g id="SPLINE_6_">
		
			<circle fill="none" stroke="#ED1F24" stroke-width="0.072" stroke-linecap="round" stroke-linejoin="round" stroke-miterlimit="10" cx="2521.712" cy="253.888" r="4.252"/>
	</g>
	<g id="SPLINE_5_">
		
			<circle fill="none" stroke="#ED1F24" stroke-width="0.072" stroke-linecap="round" stroke-linejoin="round" stroke-miterlimit="10" cx="2565.237" cy="210.271" r="32.4"/>
	</g>
</g>
<rect x="1620.556" y="452.333" fill="none" stroke="#3953A4" stroke-width="0.072" stroke-linecap="round" stroke-linejoin="round" stroke-miterlimit="10" width="841.89" height="1190.551"/>
<path fill="none" stroke="#ED1F24" stroke-width="0.072" stroke-linecap="round" stroke-linejoin="round" stroke-miterlimit="10" d="
	M1454.555,269.416V1746.43c0,46.771,38.268,85.039,85.039,85.039H2540.2c46.771,0,85.039-38.268,85.039-85.039V269.416
	l-0.001-119.055H1454.555V269.416z"/>
<g>
	
		<polyline fill="none" stroke="#3953A4" stroke-width="0.7087" stroke-linecap="round" stroke-linejoin="round" stroke-miterlimit="10" points="
		2071.506,229.669 2042.198,263.587 2012.064,229.669 	"/>
	
		<line fill="none" stroke="#3953A4" stroke-linecap="round" stroke-linejoin="round" stroke-miterlimit="10" x1="2011.5" y1="292.335" x2="2011.5" y2="229.335"/>
	
		<line fill="none" stroke="#3953A4" stroke-width="0.7087" stroke-linecap="round" stroke-linejoin="round" stroke-miterlimit="10" x1="2012.064" y1="229.669" x2="2071.506" y2="255.275"/>
	
		<line fill="none" stroke="#3953A4" stroke-linecap="round" stroke-linejoin="round" stroke-miterlimit="10" x1="2071.5" y1="292.335" x2="2071.5" y2="229.335"/>
	
		<line fill="none" stroke="#3953A4" stroke-width="0.7087" stroke-linecap="round" stroke-linejoin="round" stroke-miterlimit="10" x1="2071.506" y1="229.669" x2="2042.362" y2="242.472"/>
	
		<line fill="none" stroke="#3953A4" stroke-linecap="round" stroke-linejoin="round" stroke-miterlimit="10" x1="2041.5" y1="263.335" x2="2041.5" y2="292.335"/>
	
		<circle fill="none" stroke="#3953A4" stroke-width="0.7087" stroke-linecap="round" stroke-linejoin="round" stroke-miterlimit="10" cx="2041.785" cy="263.335" r="60.604"/>
</g>
</svg>
